<svg viewBox="0 0 96 96" xmlns="http://www.w3.org/2000/svg" xmlns:xlink="http://www.w3.org/1999/xlink" id="Icons_TreasureChest" overflow="hidden"><circle cx="48.0049" cy="61" r="3"/><path d="M54.0049 62C54.0049 65.3137 51.3186 68 48.0049 68 44.6912 68 42.0049 65.3137 42.0049 62L42.0049 54 10.0049 54 10.0049 83 86.0049 83 86.0049 54 54.0049 54ZM14.0049 79 14.0049 71.2007C17.9287 72.0099 20.9948 75.0762 21.8038 79ZM82.0049 71.2007 82.0049 79 74.2061 79C75.0151 75.0761 78.0811 72.0099 82.0049 71.2007Z"/><path d="M86.0059 23.5513 86.0049 23 84.0164 18.0288C82.8015 14.9916 79.8599 13 76.5887 13L19.4212 13C16.15 13 13.2083 14.9916 11.9934 18.0288L10.0059 22.9976 10.0059 26.1567 15.1147 38.0771 10.0049 50 34.4884 50C35.5948 49.6151 36.6654 49.1343 37.6881 48.563 38.0831 48.7735 38.493 48.9548 38.9144 49.1055 38.7756 49.1885 38.6469 49.2735 38.5031 49.355 38.0827 49.593 37.6699 49.804 37.2639 50L86.0049 50 80.8951 38.0771 86.0059 26.1521ZM29.4947 48.5737C28.3621 48.9075 27.1998 49.1312 26.0242 49.2417 22.7399 49.574 20.0038 49.1172 19.9133 48.2215L19.8652 47.7459C21.8321 48.2967 23.8911 48.4378 25.9148 48.1604 27.1632 48.0415 28.3983 47.8101 29.6052 47.469 29.4798 47.823 29.4419 48.202 29.4947 48.5737ZM25.7507 46.5386C22.4664 46.8708 19.7304 46.4141 19.6397 45.5183 19.5491 44.6226 22.1382 43.6271 25.4225 43.2948 25.4911 43.2878 25.5567 43.2847 25.6249 43.2783 26.8871 44.098 28.2415 44.7661 29.6601 45.2688 29.8449 45.3364 30.0534 45.4097 30.2777 45.485 28.8294 46.0591 27.3037 46.4142 25.7507 46.5386ZM31.826 39.6496 33.0302 41.7761C32.4321 41.6193 31.8022 41.424 31.1556 41.187 28.056 40.0515 25.7943 38.4456 26.1041 37.6001 26.393 36.8117 28.8176 36.9643 31.6581 37.9099 31.4653 38.4874 31.5263 39.1196 31.8259 39.6495ZM30.5948 42.7178C31.5164 43.0565 32.4592 43.3345 33.4171 43.5498 33.0419 43.7955 32.6494 44.0715 32.2621 44.3671 31.5713 44.193 30.8899 43.9831 30.2209 43.7382 27.1213 42.6025 24.8597 40.9966 25.1693 40.1512L25.3338 39.7025C26.8626 41.057 28.6533 42.0833 30.5948 42.7178ZM49.1619 38.1216C45.8963 38.6038 43.1423 38.2727 43.0108 37.3821 42.8792 36.4915 45.42 35.3784 48.6856 34.8963 51.9513 34.4141 54.7054 34.7452 54.8369 35.6358 54.9683 36.5264 52.4276 37.6394 49.1619 38.1216ZM55.164 37.8507 55.2338 38.3235C55.3654 39.2141 52.8246 40.3272 49.559 40.8094 46.2934 41.2915 43.5392 40.9605 43.4077 40.0699L43.3379 39.5971C45.328 40.0573 47.3913 40.104 49.4002 39.7343 51.4301 39.5075 53.3918 38.8664 55.1639 37.8507ZM39.249 37.3195C36.3765 38.9461 33.6882 39.6297 33.2446 38.8462 32.8009 38.0628 34.77 36.1092 37.6424 34.4824 40.5149 32.8557 43.2032 32.1723 43.6468 32.9556 44.0905 33.7389 42.1213 35.6929 39.2488 37.3195ZM41.6099 39.0537C41.2823 39.266 40.9502 39.4783 40.5878 39.6836 37.7153 41.3103 35.027 41.9939 34.5834 41.2105L34.3478 40.7946C36.37 40.5067 38.3116 39.8067 40.0522 38.7379 40.4396 38.5186 40.9245 38.2259 41.4377 37.8879ZM31.1598 48.5176C30.7162 47.7341 32.6852 45.7805 35.5577 44.1538 35.7342 44.0538 35.9061 43.9697 36.0806 43.8772L35.8306 45.822C35.7554 46.406 35.9241 46.9952 36.297 47.4509 33.77 48.7345 31.5583 49.2212 31.1598 48.5176ZM49.3043 47.554C49.1894 48.4469 46.4421 48.8296 43.168 48.4087 39.8939 47.9878 37.3326 46.9227 37.4474 46.0298L37.5083 45.5558C39.2992 46.5381 41.2727 47.1422 43.3065 47.3308 45.3219 47.6628 47.384 47.5773 49.3651 47.0798ZM43.5143 45.7139C40.2402 45.2931 37.679 44.228 37.7938 43.335 37.9086 42.4422 40.6559 42.0594 43.93 42.4803 47.2041 42.9011 49.7654 43.9664 49.6506 44.8592 49.5357 45.7522 46.7884 46.1348 43.5143 45.7139ZM52.5901 47.7452C52.0205 47.6719 51.4737 47.5788 50.9584 47.4706L51.0967 46.3951C51.7106 46.5186 52.2801 46.6097 52.7287 46.6673 54.1019 46.854 55.4908 46.8958 56.8727 46.7919 56.8922 47.1131 56.985 47.4256 57.1439 47.7054L57.1727 47.7564C55.6527 47.9746 54.1091 47.9708 52.5901 47.7451ZM57.3768 45.0848C55.9021 45.2766 54.4081 45.265 52.9366 45.0503 52.3539 44.9754 51.7973 44.8785 51.2713 44.7673 51.185 43.7514 50.5538 42.8624 49.6231 42.446 49.6801 42.438 49.7432 42.4299 49.7969 42.422 50.8263 42.2722 51.844 42.0504 52.8424 41.7583 53.0111 41.7759 53.1805 41.7946 53.3522 41.8167 55.8426 42.1367 57.9168 42.8298 58.7184 43.536 58.2035 43.9894 57.7522 44.5104 57.3768 45.0847ZM56.5975 39.4363C57.4962 39.8337 58.4202 40.1715 59.3633 40.4473 61.3015 41.092 63.3514 41.3319 65.386 41.1522L65.2513 41.6106C64.9976 42.4744 62.2242 42.4205 59.0569 41.49 57.9719 41.1785 56.9173 40.7693 55.9061 40.2675 56.1847 40.0343 56.4189 39.7527 56.5975 39.4363ZM56.3491 35.0226C57.84 35.0633 59.3182 35.3098 60.7416 35.7552 63.9089 36.6856 66.2708 38.1402 66.017 39.0039 65.7633 39.8677 62.99 39.8138 59.8227 38.8833 58.7808 38.5827 57.7668 38.1927 56.792 37.7176L56.4495 35.3978C56.4272 35.27 56.3936 35.1444 56.3491 35.0226ZM58.5623 46.9021C58.2178 46.2936 59.3382 44.9793 61.1977 43.6603 63.5269 44.0525 66.2358 44.0427 66.8154 42.0701L67.1859 40.8088C68.106 40.613 68.7654 40.6599 68.9645 41.0115 69.4083 41.7949 67.4391 43.7487 64.5667 45.3752 61.6943 47.0018 59.0059 47.6856 58.5623 46.9021ZM59.9011 49.2664 59.6656 48.8504C61.6878 48.5625 63.6293 47.8626 65.3699 46.7938 67.1818 45.8509 68.7808 44.546 70.0678 42.9598L70.3033 43.3757C70.7469 44.1592 68.7779 46.1128 65.9055 47.7395 63.033 49.3662 60.3447 50.0497 59.9011 49.2664ZM71.9598 43.2661C75.0948 42.9963 77.6533 43.4497 77.7408 44.3151 77.8314 45.2109 75.2424 46.2063 71.9581 46.5386 71.3661 46.5984 70.8011 46.6256 70.2576 46.636 71.3576 45.6055 72.1634 44.4224 71.9598 43.2661ZM72.2315 49.2417C70.5004 49.4809 68.7395 49.3867 67.0438 48.9641 67.4048 48.7522 67.8184 48.4956 68.2513 48.2052 69.5401 48.3122 70.8361 48.2972 72.1221 48.1604 74.1603 48.0269 76.1494 47.4763 77.9661 46.5427L78.0142 47.0182C78.1049 47.9139 75.5159 48.9094 72.2315 49.2417ZM82.0059 25.3311 77.4334 36 65.5074 36C64.153 35.2198 62.7063 34.6121 61.201 34.1912 59.7066 33.7522 56.8275 33.0652 54.8775 33.5596 53.019 32.7623 50.0086 33.0531 48.4476 33.2837 47.6194 33.4056 46.7984 33.572 45.9881 33.7822L45.0653 32.1523C43.6153 29.5918 38.8294 31.9369 36.8391 33.064 35.3891 33.8566 34.0549 34.8445 32.8736 36L30.9822 36C29.0897 35.4777 26.7169 35.1121 25.3977 36L18.5763 36 14.0059 25.3357 14.0059 23.0002 82.0059 23.0002Z"/></svg>